<svg width="60" height="50" fill="none" xmlns="http://www.w3.org/2000/svg"><g clip-path="url(#Layer_1__a)" fill="#fff"><path d="M59.985 33.1c-.097.795-.634 1.664-1.24 2.18-6.909 3.793-13.672 8.382-20.641 12.025-3.585 1.874-7.12 3.51-11.226 2.252-4.646-1.421-9.492-4.069-14.14-5.729-.214-.076-.418-.176-.654-.153v2.053c0 .447-.742.884-1.177.936-2.937.352-6.55-.27-9.561 0-.905-.107-1.123-.883-1.182-1.677-.525-7.065.408-14.773 0-21.904-.012-.7.474-1.357 1.182-1.43 3.045.249 6.582-.32 9.566-.005.438.047 1.172.484 1.172.942v2.426c3.206.068 6.444-.27 9.582.532 2.834.726 5.078 2.286 7.237 4.192 2.568.174 5.409-.222 7.943-.002 1.92.168 3.55 1.74 3.906 3.612 4.778-1.806 8.608-5.279 14.05-4.445 2.047.315 4.89 1.156 5.184 3.573.022.17.022.453 0 .623ZM2.775 44.173h6.64l.186-.187V24.33l-.186-.187h-6.64v20.029ZM19.22 27.627c-2.268-.21-4.836.157-7.135 0v13.125l15.321 6.286c3.355 1.264 6.664-.551 9.582-2.097 6.15-3.263 12.928-7.172 18.863-10.823 1.915-1.178 2.33-1.692-.237-2.418-2.567-.726-4.545-.373-6.88.632-2.334 1.006-6.718 2.94-8.688 4.228-.928.606-1.454 1.423-2.739 1.609l-15.72.025c-1.33-.287-1.392-1.974-.106-2.455l15.227-.037c2.174-.379 2.043-3.163-.124-3.46-2.703-.373-6.094.3-8.87-.067-2.286-2.272-5.181-4.24-8.493-4.547Z"/><path d="M28.88 23.105c-7.69-7.808-3.294-21.25 7.501-22.934 10.691-1.669 18.905 9.182 14.443 19.08-3.861 8.568-15.35 10.548-21.944 3.854Zm9.595-20.56c-9.167.043-14.23 10.724-8.518 17.926 4.63 5.838 13.79 5.333 17.794-.94 4.683-7.338-.578-17.026-9.276-16.986Z"/><path d="M36.593 14.814c-1.563-.245-2.434-1.844-2.548-3.292-.19-2.407.465-4.717 3.232-4.794-.49-2.706 2.97-2.707 2.48 0 1.64-.137 3.238 1.42 3.227 3.05-.007 1.233-1.648 1.84-2.358.745-.265-.408-.153-.974-.453-1.163-.352-.222-2.932-.22-3.302-.02-.334.182-.328 2.685 0 2.862.627.338 2.768.002 3.664.153 1.323.224 2.287 1.494 2.436 2.782.283 2.453-.208 5.276-3.213 5.273.49 2.704-2.969 2.71-2.481 0-1.605.131-3.24-1.438-3.206-3.05.026-1.246 1.624-1.839 2.338-.745.253.39.176.847.462 1.185.423.234 3.046.277 3.508-.188v-2.488c0-.023-.288-.31-.31-.31-.987 0-2.579.14-3.474 0h-.002Z"/></g><defs><clipPath id="Layer_1__a"><path fill="#fff" d="M0 0h60v50H0z"/></clipPath></defs></svg>