<svg width="80" height="80" fill="none" xmlns="http://www.w3.org/2000/svg"><circle cx="40" cy="40" r="40" fill="#000"/><g clip-path="url(#Group 3__a)"><path d="M25.15 15c1.746 1.213 3.056 2.972 4.65 4.376 13.233-6.801 29.524-.01 34.024 14.092 5.952 18.658-11.693 36.31-30.356 30.356-14.098-4.498-20.891-20.8-14.092-34.024-1.404-1.595-3.163-2.904-4.376-4.65v-.78c.233-.377.39-.794.842-.964l5.507-2.105 2.056-5.46c.17-.45.587-.608.964-.841h.781Zm4.489 12.492.537-3.51-4.683-4.69-.244-.096-1.029 2.93 5.419 5.365v.001Zm-8.1 4.49c-5.462 12.037 1.404 26.354 14.228 29.445C51.362 65.186 65.329 51.093 61.37 35.53c-3.23-12.696-17.43-19.41-29.388-13.99.328.498 1.158.996 1.263 1.614.18 1.075-.432 2.747-.58 3.85 1.03-.502 2.047-1.037 3.145-1.392 16.583-5.359 28.593 15.83 15.644 27.258-12.558 11.08-31.663-2.28-25.502-17.987.3-.765.712-1.474 1.05-2.219-1.112.153-2.758.756-3.849.58-.523-.084-1.533-1.326-1.614-1.263Zm5.953-2.343-5.365-5.419-2.93 1.029.097.244 4.689 4.683 3.51-.537Zm11.887-1.825c-1.907.17-4.35 1.088-5.907 2.193-.144.102-.734.478-.703.644l3.576 3.565c.929-.417 1.743-.9 2.76-1.113 8.181-1.714 13.131 8.549 6.879 13.808-5.815 4.892-14.435-.34-12.88-7.806.21-1.016.697-1.832 1.112-2.76l-3.565-3.576c-.26-.047-1.353 1.84-1.519 2.17-6.026 11.997 7.913 24.289 19.08 16.739 11.149-7.538 4.944-25.084-8.834-23.864h.001ZM36.375 38.52c-1.261 2.72-.157 5.948 2.706 7.004 4.47 1.649 8.47-3.187 6.03-7.3-1.353-2.282-4.23-2.941-6.59-1.85.908 1.207 2.478 2.246 3.368 3.413 1.206 1.58-.506 3.273-2.051 2.148l-3.464-3.415h.001Z" fill="#fff"/></g><defs><clipPath id="Group 3__a"><path fill="#fff" transform="translate(15 15)" d="M0 0h50v50H0z"/></clipPath></defs></svg>