<svg width="80" height="80" fill="none" xmlns="http://www.w3.org/2000/svg"><circle cx="40" cy="40" r="40" fill="#129D47"/><g clip-path="url(#Group 5__a)" fill="#fff"><path d="M15 40.352v-.78c.286-.508.59-.967 1.227-1.066 1.859-.29 4.411.206 6.346-.01 1.753.308 1.753 2.624 0 2.93-1.935-.214-4.487.283-6.346-.008-.638-.1-.941-.558-1.227-1.067v.001Zm42.268-1.83h6.599c1.558.372 1.49 2.652-.082 2.898-.834.13-5.743.14-6.516-.016-1.512-.306-1.508-2.537 0-2.88v-.002ZM39.204 26.828c10.198-.634 17.247 10.207 12.477 19.28-1.208 2.297-3.402 3.687-4.083 6.26-.537 2.024.075 4.032-1.729 5.685.327 3.169-.41 6.557-4.154 6.87-3.262.272-7.173.002-7.556-4.058-.071-.759.142-2.304-.032-2.893-.027-.087-.658-.807-.803-1.05-.865-1.465-.497-2.476-.767-4.013-.476-2.707-1.977-3.408-3.375-5.408-5.916-8.467-.277-20.033 10.023-20.674Zm4.773 28.898c.601-.6.41-2.116.55-3.01.726-4.651 4.234-5.9 5.346-9.973 1.972-7.226-3.967-13.898-11.368-12.91-6.608.883-10.478 7.851-7.992 13.998 1.33 3.289 4.08 4.338 4.873 8.3.192.96.08 2.075.247 2.874.117.565.732 1.077 1.295 1.146 1.293.16 4.739.134 6.063.003.32-.031.76-.2.987-.428Zm-1.04 3.349h-5.861v1.803c0 .36.773 1.022 1.145 1.1.442.091 3.233.084 3.643-.024.344-.091 1.072-.744 1.072-1.076v-1.803Z"/><path d="M39.302 32.679c.631-.05 1.368-.085 1.824.462.69.83.28 2.197-.8 2.412-1.224.243-1.788.014-2.949.86-1.278.932-1.097 1.625-1.783 2.705-.92 1.45-2.928.563-2.697-1.032.409-2.813 3.685-5.193 6.405-5.407ZM40.396 15c.51.285.97.588 1.07 1.225.29 1.855-.207 4.403.008 6.335-.307 1.75-2.628 1.75-2.935 0 .215-1.931-.283-4.48.009-6.335.1-.637.558-.94 1.068-1.225h.781Zm-17.113 6.945c.494-.052.869.183 1.239.468.838.645 3.472 3.268 4.096 4.102.559.748.637 1.741-.24 2.28-.684.418-1.252.24-1.844-.2-.81-.603-3.548-3.336-4.152-4.144-.387-.52-.57-.93-.32-1.571.186-.476.714-.882 1.22-.935Zm33.11-.003c.6-.082 1.282.321 1.526.868.284.638.131 1.043-.25 1.582-.536.755-3.43 3.634-4.192 4.201-.591.44-1.16.62-1.844.2-.847-.52-.807-1.48-.28-2.222.57-.805 3.27-3.47 4.084-4.114.256-.202.63-.471.955-.515h.001Z"/></g><defs><clipPath id="Group 5__a"><path fill="#fff" transform="translate(15 15)" d="M0 0h50v50H0z"/></clipPath></defs></svg>