<svg width="80" height="80" fill="none" xmlns="http://www.w3.org/2000/svg"><circle cx="40" cy="40" r="40" fill="#129D47"/><g clip-path="url(#Group 1__a)" fill="#fff"><path d="M40.39 15c.481.28.93.541 1.052 1.145.128.63.098 3.183.022 3.885-.19 1.787-2.738 1.787-2.93 0-.081-.754-.105-3.183.022-3.884.116-.634.566-.846 1.052-1.146h.781ZM30.11 56.536c1.299-.24 2.208.809 1.734 2.027-.232.595-1.745 3.229-2.146 3.715-1.063 1.291-3.028.273-2.524-1.45.13-.442 1.71-3.18 2.04-3.625.21-.285.54-.6.896-.667Zm18.945-.001c.72-.15 1.246.043 1.687.613.372.48 1.828 2.999 2.025 3.542.66 1.817-1.373 2.914-2.466 1.588-.413-.5-1.862-3.026-2.117-3.646-.323-.787-.04-1.908.871-2.097ZM28.357 17.172c.571-.07 1.04.16 1.388.611.439.57 1.798 2.931 2.07 3.595.716 1.748-1.362 2.933-2.511 1.535-.337-.41-1.945-3.188-2.103-3.66-.32-.96.101-1.953 1.156-2.082Zm22.85-.002c1.2-.172 1.948.883 1.618 2.014-.121.414-1.772 3.282-2.083 3.679-1.138 1.451-3.251.296-2.586-1.415.252-.65 1.626-3.03 2.056-3.609.23-.311.602-.612.996-.67h-.001ZM39.583 58.685c.952-.198 1.777.31 1.882 1.295.076.703.106 3.257-.022 3.886-.316 1.557-2.715 1.522-2.908-.173-.088-.768-.1-3.152.023-3.884.083-.486.532-1.022 1.025-1.124ZM15 40.396v-.781c.886-1.314 2.137-2.59 3.319-3.664 11.942-10.848 27.63-11.767 40.657-2.179 1.571 1.157 4.583 3.636 5.633 5.208.788 1.181.27 1.758-.537 2.687-5.085 5.86-14.475 10.812-22.262 11.235-8.486.462-17.278-3.198-23.492-8.842-1.182-1.074-2.433-2.35-3.319-3.664H15ZM38.808 30.07c-3.872.375-7.343 3.428-8.404 7.125-2.659 9.266 8.032 16.59 15.695 10.717 7.96-6.1 2.894-18.83-7.291-17.842Zm-9.258 2.218c-4.153 1.743-7.905 4.45-11.028 7.681 3.015 3.343 6.87 5.927 10.979 7.753.152-.077 0-.174-.044-.25-2.643-4.503-3.42-8.781-.837-13.624.098-.183.995-1.497.93-1.56Zm20.9 15.432c4.149-1.749 7.906-4.45 11.027-7.68-3.013-3.343-6.864-5.94-10.979-7.754-.152.078 0 .175.044.25 2.643 4.504 3.42 8.782.837 13.624-.098.183-.995 1.498-.93 1.56Z"/><path d="M39.294 35.051c6.838-.827 7.657 9.258 1.328 9.924-6.726.709-7.563-9.17-1.328-9.924Zm.289 2.926c-2.506.428-1.993 4.538.832 4.056 2.506-.428 1.993-4.537-.832-4.056Z"/></g><defs><clipPath id="Group 1__a"><path fill="#fff" transform="translate(15 15)" d="M0 0h50v50H0z"/></clipPath></defs></svg>