<svg width="51" height="50" fill="none" xmlns="http://www.w3.org/2000/svg"><path d="M46.09 0c.534.14 1.002.156 1.532.373.856.351 1.694 1.211 2.032 2.07.199.503.199.964.344 1.463-.047 1.33.062 2.677 0 4.005-.506 10.635-5.063 19.699-13.262 26.438-.292 2.254-.253 4.56-.51 6.815-.172 1.512-.524 2.394-1.725 3.354-2.395 1.914-5.576 3.49-8.103 5.277-1.637.627-3.203-.25-3.62-1.92-.495-1.985-.514-4.255-1.019-6.258-1.355.214-2.614-.07-3.647-.992-2.642-2.966-6.094-5.644-8.648-8.637-.973-1.14-1.323-2.245-1.086-3.75-1.88-.451-3.884-.538-5.77-.921C.699 26.93-.379 25.77.142 23.735c1.785-2.567 3.429-5.894 5.377-8.296.93-1.146 1.868-1.504 3.313-1.668 2.255-.256 4.562-.217 6.816-.51C22.377 5.078 31.458.492 42.087 0h4.003Zm.65 3.258c-.213-.214-.694-.298-.993-.326-4.678-.436-11.329.863-15.641 2.715-6.224 2.675-12.452 8.662-15.675 14.601-.138.253-.798 1.472-.721 1.625L28.068 36.24c.112.113.208.098.347.052.232-.076 1.042-.565 1.334-.725 5.957-3.264 11.91-9.414 14.6-15.675 1.853-4.313 3.152-10.965 2.716-15.641-.027-.3-.112-.78-.326-.993h.001Zm-33.367 13.15c-1.734.192-3.594.088-5.27.54l-4.984 7.467 6.045.87c.878-3.179 2.384-6.15 4.21-8.877h-.001ZM25.288 37.6l-12.89-12.89c-.35 1.086-.729 2.177-.947 3.303-.1.516-.338 1.203-.07 1.67l8.826 8.85c.396.36.829.183 1.292.112 1.286-.2 2.553-.669 3.79-1.044h-.001Zm.294 9.279 7.467-4.984c.452-1.676.348-3.536.54-5.27-2.731 1.815-5.702 3.324-8.877 4.21l.87 6.045v-.001ZM10.32 37.916c1.23-.22 2.084.824 1.69 1.985-2.97 3.398-6.384 6.451-9.526 9.713-1.515 1.18-3.28-.583-2.1-2.1l9.129-9.134c.224-.2.504-.409.806-.463ZM5.924 33.52c1.37-.277 2.299 1.17 1.534 2.315-1.67 1.349-3.347 3.828-5.032 5.028-1.433 1.02-3.019-.544-2.185-1.893 1.738-1.445 3.375-3.79 5.122-5.133.16-.122.363-.277.561-.317Zm8.693 8.791c1.392-.288 2.352.985 1.633 2.22l-5.225 5.225c-1.417.784-2.867-.752-1.933-2.13.54-.797 4.137-4.363 4.962-4.999.16-.123.363-.276.562-.317v.001Z" fill="#fff"/><path d="M33.863 8.428c5.9-.297 9.721 6.141 6.605 11.195-2.594 4.204-8.695 4.637-11.855.834-3.847-4.627-.736-11.726 5.25-12.029Zm3.502 4.205C33.317 8.585 27.109 14.67 31.05 18.8c4.028 4.218 10.465-2.016 6.314-6.167Z" fill="#fff"/></svg>