<svg width="26" height="20" fill="none" xmlns="http://www.w3.org/2000/svg"><path d="M.013 6.478c.387.37.749.71 1.178 1.034 1.41 1.065 2.996 2.038 4.457 3.05 1.924 1.333 5.055 4.137 7.422 3.97 1.944-.138 5.24-2.903 6.92-4.07 1.445-1.003 3.124-1.99 4.487-3.07.355-.28.657-.619.998-.914v11.506c0 .97-1.191 2.044-2.16 2.016l-21.237-.003a2.319 2.319 0 0 1-1.904-1.428l-.16-.56V6.478H.012Z" fill="#129D47"/><path d="M.013 2.252C.102 1.329.673.29 1.642.079A768.119 768.119 0 0 1 23.744.08c2.902.973 1.643 4.298-.185 5.7-2.874 1.923-5.664 4.136-8.562 6.006-.601.388-1.5.949-2.229.958-.728.009-1.663-.561-2.278-.958-2.82-1.82-5.518-3.991-8.334-5.836C1.306 5.27.145 3.964.012 2.848a3.612 3.612 0 0 1 0-.596Z" fill="#129D47"/></svg>