<?xml version="1.0" encoding="UTF-8"?>
<svg id="Layer_2" data-name="Layer 2" xmlns="http://www.w3.org/2000/svg" viewBox="0 0 1000 1000">
  <defs>
    <style>
      .cls-1 {
        fill: #129d47;
      }

      .cls-2 {
        fill: #fff;
      }
    </style>
  </defs>
  <g id="Layer_1-2" data-name="Layer 1">
    <g>
      <rect width="1000" height="1000" rx="227.57" ry="227.57"/>
      <g>
        <path class="cls-1" d="M778.44,432.53c2.52-.19,6.24-2.64,6.98-4.93,2.87-8.9,4.77-18.11,6.79-26.24-1.7-8.9-2.69-16.41-4.76-23.61-.71-2.47-4.05-5.72-6.26-5.78-2.25-.06-5.69,2.92-6.72,5.36-6.88,16.33-7.26,33.14-1.75,49.92.75,2.27,3.89,5.41,5.72,5.27Z"/>
        <path class="cls-1" d="M813.64,442.89c2.82.77,7.89-1.89,10.14-4.59,10.15-12.18,15.78-26.48,16.38-42.39.11-3.02-2.24-6.12-3.45-9.19-3.27,1.31-7.48,1.74-9.64,4.07-10.88,11.75-15.7,26.3-18.14,43.97,1.03,1.96,2.22,7.44,4.72,8.13Z"/>
        <path class="cls-2" d="M667.27,538.72c.29,55.28,54.13,98.43,108.39,87.18,48.9-10.13,81.13-58.32,71.94-107.53-7.61-40.75-41.47-72.38-81.64-75.5-28.04-2.18-52.27,6.81-73.82,29.35,0-25.73,0-48.75,0-71.77,0-15.6-.02-15.12-15.26-15.54-8.38-.24-9.84,3.18-9.8,10.59.27,47.74-.06,95.49.2,143.23ZM757.95,467.12c36.56.28,66.35,30.75,66.26,67.75-.09,37.8-30.99,68.97-67.86,68.45-35.42-.5-64.57-31.69-64.17-68.67.41-38.63,28.83-67.81,65.78-67.53Z"/>
        <path class="cls-1" d="M858.57,496.73c.48,2.12,5.24,3.27,7.08,4.29,17.9-2.65,32.58-8.64,44.56-20.09,2.15-2.06,4.34-7.37,3.3-8.75-1.83-2.41-6.25-4.29-9.4-4.03-16.19,1.3-30.37,7.94-42.25,18.89-2.3,2.12-3.95,6.79-3.3,9.69Z"/>
        <path class="cls-1" d="M841.11,464.63c1.69,1.71,7.36,2.11,9.24.58,10.86-8.83,21.27-18.24,31.44-27.87,2.33-2.21,3.09-6.07,4-7.99.77-8.15-3.05-10.81-10.45-7.56-15.56,6.84-27.06,18.36-34.6,33.51-1.28,2.58-1.3,7.65.36,9.32Z"/>
        <path class="cls-1" d="M870.38,528.06c-2.17.92-4.99,4.44-4.64,6.17.51,2.5,3.27,5.64,5.74,6.42,6.54,2.07,13.43,3.03,21.58,4.71,8.84-2.14,18.68-4.15,28.23-7.09,2.33-.72,4.85-4.36,5.13-6.89.19-1.7-3.05-4.81-5.35-5.61-17.13-6.02-34.16-4.76-50.7,2.29Z"/>
        <path class="cls-1" d="M73.57,611.66c-.07,8.55,3.82,10.68,11.61,10.77,8.2.09,11.3-2.95,11.23-11.1-.24-28.78-.14-57.56,0-86.35.03-6.94.18-13.97,1.23-20.81,5.25-34.37,40.05-49.53,69.02-30.24,13.76,9.16,20.21,22.14,20.2,38.55-.02,32.89.17,65.79-.05,98.68-.05,8.01,2.66,11.17,11.01,11.3,9,.13,12.31-2.82,12.21-11.99-.36-32.89-.38-65.79,0-98.68.28-25.21,17.95-43.58,42.96-45.68,24.28-2.04,42.28,12.59,46.83,38.41.98,5.56,1.18,11.32,1.21,16.99.13,30.36.21,60.73,0,91.09-.05,7.61,3.36,9.9,10.42,9.74,6.62-.15,12.09-.57,12.05-9.29-.18-35.11.64-70.24-.54-105.31-.95-28.08-19.95-51.19-45.73-59.33-29.37-9.27-53.41-2.24-73.04,21.33-1.58,1.9-3.33,3.65-5.9,6.44-3.88-4.48-6.88-8.11-10.05-11.58-14.29-15.65-32.13-21.97-53-19.44-36.95,4.48-60.65,30.64-61.39,68.76-.63,32.57-.01,65.15-.29,97.73Z"/>
        <path class="cls-2" d="M347,623.55c7.81.29,9.55-2.67,9.47-9.86-.33-29.11-.13-58.22-.13-87.33,0-3.36,0-6.73,0-10.77,4.61-.2,8.02-.48,11.44-.48,31.96-.03,63.92.26,95.87-.21,8.55-.12,11.56,2.07,11.4,11.02-.52,28.47-.19,56.95-.19,85.43v11.46h23.6v-236.31h-23.6c0,4.17,0,7.59,0,11.01,0,27.84-.15,55.69.1,83.53.06,6.93-1.35,10.16-9.41,10.05-33.53-.45-67.08-.17-100.62-.23-2.69,0-5.39-.51-8.59-.84,0-4.39,0-7.85,0-11.31,0-27.84.04-55.69-.07-83.53,0-2.71-.58-7.67-1.4-7.78-6.77-.91-13.75-1.56-20.46-.69-1.49.19-3.06,6.73-3.06,10.35-.18,70.24-.19,140.49-.09,210.73.02,17.28-2.52,15.07,15.75,15.76Z"/>
        <path class="cls-2" d="M580.47,627.92c40.29,2.07,75.93-26.25,79.65-66.87,2.85-31.07,1.35-62.55,1.59-93.84.18-22.68.03-22.68-22.59-19.56-.29.04-.54.27-2.3,1.19,0,3.37,0,6.8,0,10.22,0,29.42.08,58.85-.03,88.27-.12,31.86-23.12,55.72-53.1,56.26-23.5.42-54.59-20.37-53.48-55.96.91-29.08.2-58.21.15-87.31,0-4.04-.38-8.08-.59-12.39h-24.15c0,36-.82,71.1.21,106.16,1.21,41.02,33.04,71.71,74.61,73.84Z"/>
      </g>
    </g>
  </g>
</svg>