<svg width="51" height="50" fill="none" xmlns="http://www.w3.org/2000/svg"><g clip-path="url(#Layer_1__a)" fill="#fff"><path d="M43.347 0c1.42.32 2.657 1.259 3.176 2.645.302.804.37 3.16.233 4.03-.143.92-1.551 1-1.843.042-.5-1.639.851-4.429-2.046-4.791L8.287 1.92c-.659.026-1.374.372-1.74.93-.06.091-.338.683-.338.73v19.186l1.067-.321c-.598-1.584-.813-3.037-.092-4.634 1.307-2.89 5.152-3.81 7.618-1.781 3.35 2.756 1.976 7.985-2.191 8.767.383 1.246.52 2.543.534 3.848l3.263-4.587.469-.28 17.212-.024.508.24 3.306 4.65c.014-1.304.152-2.601.534-3.847-3.601-.553-5.326-5.025-3.044-7.912 3.178-4.024 9.51-1.381 8.902 3.785-.073.618-.423 1.165-.522 1.774l1.067.321V10.1c0-.856 1.664-1.245 1.898-.19l.045 14.276c1.983 4.164 6.595 8.323 2.7 12.904-.177.208-1.345 1.28-1.494 1.28h-3.362l3.975 5.909c.292.347-.28 1.252-.613 1.252H33.635c.08.936.705 4.089-.422 4.441l-15.297.026c-.427-.137-.646-.464-.707-.896-.158-1.123.085-2.45.204-3.57h-5.175c-.035 0-.464-.355-.51-.453-.362-.773.153-1.404.93-1.477 1.727-.16 3.678.147 5.428-.015.176-.054.812-1.146 1.038-1.42.833-1.007 1.925-1.775 3.09-2.354-4.097-3.733-.085-10.382 5.152-8.364 3.515 1.354 4.172 5.913 1.466 8.417 1.792.69 3.096 2.165 4.108 3.742H45.8l-5.672-8.325c-.093-.054-.48.096-.672.1-1.574.035-5.604.226-6.887-.274-2.237-.873-2.317-4.209-.076-5.203.128-.056.808-.3.875-.3h2.722l-2.742-3.934H17.7l-2.742 3.934h2.615c2.745 0 3.731 4.4.906 5.503-1.283.5-5.313.31-6.886.274-.193-.004-.58-.154-.673-.1l-5.672 8.325h3.789c.03 0 .468.263.528.327.497.535.234 1.356-.444 1.576-1.838-.12-4.057.237-5.85.024-.561-.066-.87-.456-.9-1.01l4.052-6.153H3.062c-.054 0-.74-.54-.857-.639C1.007 36.711.375 35.281.02 33.776c.043-.475-.059-1.034 0-1.496.286-2.246 3.394-5.946 4.263-8.182l.032-20.812C4.642 1.743 6.125.213 7.703 0h35.644ZM11.09 16.913c-3.266.514-3.2 5.622.09 6.058 4.718.626 4.699-6.812-.09-6.058Zm27.64 0c-3.674.579-3.033 6.712 1.23 6.042 3.654-.576 3.083-6.72-1.23-6.042ZM8.216 24.181c-3.192.228-4.417 5.498-6.082 7.705-.29.707-.236 1.492-.036 2.213.2.72 1.016 2.258 1.814 2.352.735.086 2.916.098 3.636.003.325-.043.45-.187.603-.465.197-.355.463-2.369.4-2.792-.127-.863-1.67-2.658-1.709-3.537-.043-.942 1.158-1.371 1.763-.58.683.895 1.222 2.586 1.856 3.593.37.59.503.724 1.24.788 1.38.12 3.964.117 5.345 0 1.557-.132 1.588-1.62.483-1.881-1.399-.332-3.762.133-5.293-.044-.391-.045-.666-.224-.774-.615-.593-2.163.54-7.009-3.246-6.739Zm34.257 0c-3.42.243-2.317 4.45-2.871 6.647-.114.452-.316.652-.788.707-1.573.182-3.696-.251-5.206.022-1.144.207-1.201 1.746.296 1.897 1.34.135 4.094.125 5.446.006.74-.065.87-.2 1.24-.788.634-1.007 1.173-2.697 1.857-3.592.683-.896 2.047-.27 1.671.926-.331 1.055-1.67 2.57-1.625 3.606.02.474.174 1.837.331 2.238.093.237.316.547.58.596.41.077 3.664.059 4.005-.045.504-.155 1.33-1.622 1.494-2.138.243-.76.32-1.618.014-2.377-1.662-2.2-3.051-7.946-6.444-7.705Zm-14.745 9.74c-2.878-2.971-7.307 1.623-4.342 4.402 2.89 2.708 7.124-1.53 4.342-4.402Zm4.2 14.178c.103-2.298-.87-4.62-2.804-5.903-4.613-3.065-10.312.512-10.003 5.903h12.807Z"/><path d="M40.22 12.473c-.49.453-1.527.29-1.734-.39-.1-.323.013-.655-.101-.967l-5.34 4.7c-.614.469-1.087.622-1.722.072l-3.932-4.341-6.488 4.933c-.555.357-1.45.075-1.562-.614-.113-.689.062-.845.525-1.278 2.046-1.911 4.986-3.489 7.113-5.381.41-.213.982-.202 1.321.143l3.893 4.33 4.855-4.328c-.548-.133-1.012.108-1.445-.37a1.08 1.08 0 0 1 .652-1.814c.71-.11 2.985-.09 3.728-.006.494.056.917.277 1.007.807.106.625-.27 3.119-.449 3.814-.05.196-.183.559-.324.69h.002Zm-29.345-3.47 9.689-.027c1.334.16 1.252 1.796.107 1.93l-9.814-.01c-.964-.15-1.046-1.678.018-1.892v-.001Zm-.108-4.063 9.904-.026c1.145.133 1.162 1.74-.01 1.92-3.017-.254-6.658.362-9.6.01-1.145-.138-1.293-1.478-.295-1.904h.001Z"/></g><defs><clipPath id="Layer_1__a"><path fill="#fff" d="M0 0h51v50H0z"/></clipPath></defs></svg>