<svg width="21" height="20" fill="none" xmlns="http://www.w3.org/2000/svg"><path d="M5.477 0c.548.1 1.06.44 1.28.966.205.485.12 1.078.166 1.592.06.674.202 1.334.354 1.99.178.767.481 1.196.014 1.973L5.473 8.925a.126.126 0 0 0-.03.11c.016.106.472.853.565 1.002a12.164 12.164 0 0 0 4.184 4.098c.124.074.699.42.784.433.032.004.059.007.086-.014l2.372-1.811c.807-.508 1.436-.13 2.232.06.99.237 1.81.241 2.8.325.83.07 1.377.607 1.544 1.405-.111 1.278.15 2.816 0 4.064-.183 1.53-1.763 1.447-2.91 1.366C8.228 19.338.943 12.28.086 3.418-.032 2.198-.284.204 1.415 0h4.063Z" fill="#129D47"/></svg>