<svg width="50" height="45" fill="none" xmlns="http://www.w3.org/2000/svg"><g clip-path="url(#Layer_1__a)" fill="#fff"><path d="M42.09 0c.438.213.761.537.872 1.024v7.358c-.192.914-1.222 1.372-1.97.736-.067-.057-.367-.504-.367-.536V4.558c-7.426 8.7-16.964 15.555-27.71 19.661-1.024.39-3.737 1.502-4.677 1.57-1.265.091-1.8-1.491-.712-2.169 12.43-3.794 23.721-11.203 31.828-21.292h-4.931c-.284 0-.798-.487-.883-.772-.22-.748.169-1.271.834-1.556h7.715ZM50 44.123c-.254.486-.615.89-1.217.877H1.217c-.897-.014-1.522-.924-1.062-1.742.098-.175.586-.59.773-.59H7.03V28.074c0-.245.682-.98 1.034-.912 2.313.153 4.95-.233 7.222-.014.578.056 1.217.5 1.217 1.12V42.67h3.808V22.255c0-.33.682-.7 1.02-.732 2.383-.216 5.1.166 7.519.01.241-.028.835.569.835.722V42.67h3.809V16.922c0-.62.638-1.065 1.216-1.12 2.273-.22 4.91.165 7.222.013.352-.068 1.034.667 1.034.912v25.94h6.104c.312 0 .804.591.927.873v.583H50Zm-9.376-25.988H35.84V42.67h4.784V18.134Zm-13.28 5.72h-4.688V42.67h4.688V23.856ZM14.16 29.482H9.376V42.67h4.784V29.48Z"/></g><defs><clipPath id="Layer_1__a"><path fill="#fff" d="M0 0h50v45H0z"/></clipPath></defs></svg>