<svg width="29" height="31" fill="none" xmlns="http://www.w3.org/2000/svg"><path d="m18.553 6.989 5.167-3.63c.352-.115.711-.076.975.187l3.935 5.566c.333.623.147.938-.343 1.331-2.01 1.611-4.391 2.978-6.442 4.561l-.126.176 6.665 4.777c.383.298.557.755.258 1.19-1.067 1.487-2.075 3.022-3.152 4.5-.405.556-.84 1.52-1.63 1.349l-5.307-3.674v6.39c0 .229-.468.605-.712.593-2.189-.163-4.676.211-6.829.002-.38-.037-.834-.378-.834-.782v-6.203L5.073 26.95c-.379.127-.762.062-1.028-.241L.138 21.16c-.159-.3-.202-.626-.01-.924 2.197-1.733 4.545-3.292 6.82-4.93l.125-.176L.41 10.353c-.423-.32-.526-.72-.27-1.203 1.13-1.532 2.168-3.135 3.289-4.674.47-.646.844-1.553 1.797-1.018l4.954 3.531V.786c0-.33.43-.77.774-.781l6.887.001c.207-.064.714.387.714.53v6.452Z" fill="#129D47"/></svg>