<svg width="50" height="50" fill="none" xmlns="http://www.w3.org/2000/svg"><g clip-path="url(#Layer_1__a)" fill="#fff"><path d="M14.62 24.194H6.58v1.613h8.04v-1.613Zm-6.432-3.226H6.58v1.613h1.608v-1.613Zm3.217 0H9.796v1.613h1.609v-1.613Zm3.215 0h-1.608v1.613h1.608v-1.613Z"/><path d="M40.954 0c.223.363.423 2.115.627 2.295.032.028.745.29.789.28l1.937-1.154 4.273 4.356-1.148 1.875.38.847L50 9.072v6.048c-.361.223-2.109.424-2.288.629-.027.031-.29.746-.28.79l1.151 1.943-4.214 4.255-1.999-1.121-.822.322-.482 1.986c2.923 2.297 3.376 6.566.891 9.389-.216.245-1.102.926-1.104 1.11 4.157 1.247 7.62 4.772 8.717 9.001.192.74.255 1.5.431 2.24V50H6.981c-1.398-.477-1.32-2.03-1.21-3.28.053-.6.61-1.559 1.26-1.559h3.57v-3.225H3.614c-1.53 0-3.426-2.047-3.456-3.591.318-6.51-.465-13.496-.017-19.952.118-1.695 1.65-3.876 3.473-3.876h22.262V9.123l2.188-.623.38-.847-1.148-1.875 4.274-4.35 1.936 1.149c.045.01.758-.253.789-.28.204-.181.405-1.933.627-2.296h6.031V0ZM27.486 10.282v4.234h3.618c-1.803-5.345 2.704-10.598 8.265-9.55 2.724.515 5.116 2.889 5.66 5.614 1.12 5.59-4.143 10.195-9.502 8.372v3.83c1.3-.308 2.757-.323 3.97.3l.67-2.399 2.244-.887 1.695.961 2.432-2.412c.145-.289-.917-1.422-.938-1.845l.901-2.167 1.882-.43.016-3.558-1.898-.483-.902-2.167c.05-.395 1.073-1.58.94-1.844l-2.433-2.412-1.712.98-2.226-.907-.429-1.887-3.547-.016-.523 1.932-2.185.88c-.28-.025-1.228-.854-1.572-.953-.143-.04-.144-.02-.256.054-.207.14-2.313 2.228-2.344 2.392l.971 1.717-.904 2.233-1.891.421-.002-.003Zm9.83-3.801c-2.996.298-5.219 3.077-5.004 6.067.035.49.354 1.796.655 2.166.302.37 1.085.612 1.556 1.161.299.346.51.938.75 1.163 1.043.98 3.718.758 4.945.218 5.774-2.542 3.528-11.415-2.904-10.774l.001-.001ZM32.31 24.698l1.59-1.278c-.098-1.628.19-3.53.017-5.125-.112-1.043-.978-1.923-1.985-2.142l-28.018-.025c-.807-.034-2.16 1.21-2.16 1.967v17.389h1.608V19.002c0-.486.915-1.313 1.457-1.26l26.29.045c.441.034 1.2.815 1.2 1.216v5.696-.001Zm-1.608-5.343H4.972v16.129h6.432v-8.065h4.824v8.065h1.608v-11.29h4.825v11.29h1.608V20.968h4.824v14.516h1.608v-16.13h.001Zm-3.216 3.226h-1.609v12.903h1.609V22.58Zm9.024 1.64c-6.013.728-5.293 10.037.975 9.648 6.384-.396 5.61-10.444-.975-9.647Zm-15.457 1.585h-1.608v9.678h1.608v-9.678Zm-6.432 3.226h-1.609v6.452h1.609v-6.452Zm17.689 4.335v1.411c.139-.022 1.306-.356 1.205-.503-.495-.163-.8-.619-1.205-.908Zm4.925 12.6 2.707-10.017c-.067-.22-1.837-.451-2.15-.47a10.163 10.163 0 0 0-3.43.402l2.662 9.946.21.14Zm-4.423-9.576-1.009.47.43 2.984 1.84 1.887-.81 1.823 2.765 4.831-3.216-11.995Zm9.633.42-.988-.42-3.216 11.995 2.765-4.83-.828-1.774 1.828-1.866.438-3.105Zm-13.854.286H1.756c-.212 1.519.512 2.903 2.07 3.216l22.238-.008c.58-1.259 1.617-2.201 2.529-3.21v.002Zm-2.714 11.29h2.412v-6.452h1.609v6.452h4.222l-2.672-4.737.645-1.55c-.045-.238-1.203-1.077-1.338-1.377-.135-.3-.364-2.824-.507-2.82-3.252 2.362-4.705 6.528-4.37 10.484Zm22.515 0c.333-3.958-1.124-8.118-4.371-10.485-.143-.003-.379 2.535-.507 2.82-.135.301-1.293 1.14-1.338 1.379l.645 1.55-2.672 4.736h4.222v-6.452h1.609v6.452h2.412Zm-23.218-6.452H12.21v3.226h12.16l.803-3.226Zm-.904 4.84H7.383v1.612H24.27v-1.613Z"/><path d="M37.414 8.093c5.509-.641 6.115 7.64.875 8.034-5.278.397-5.897-7.45-.875-8.034Zm.097 1.61c-2.972.472-2.407 5.204.771 4.805 3.178-.4 2.51-5.328-.771-4.805Z"/></g><defs><clipPath id="Layer_1__a"><path fill="#fff" d="M0 0h50v50H0z"/></clipPath></defs></svg>