<svg width="50" height="47" fill="none" xmlns="http://www.w3.org/2000/svg"><g clip-path="url(#Layer_1__a)"><path d="M26.854.022c3.966.505 5.66 5.517 2.727 8.29l-1.526 1.041c.572-.046 1.084.04 1.636.165.48.108 1.013.433 1.368.49 1.648.261 4.421-.474 5.82.506.312.218.988 1.06.988 1.421v6.423h4.144c.71-3.407 4.927-4.545 7.144-1.758 1.373 1.725 1.035 4.44-.74 5.736-2.472 1.805-5.839.43-6.404-2.55h-4.144v5.928c.808.046 1.946-.303 2.074.82.229 1.995-.242 3.88-2.51 4.065l2.015 2.006c1.902-1.343 4.587-.736 5.745 1.27 1.243 2.153.336 4.961-1.982 5.836-3.809 1.439-6.89-2.75-4.814-6.132l-2.981-3.035h-9.651v8.454c3.36.554 4.428 4.905 1.746 7.083-3.325 2.7-7.975-1.044-6.127-4.962.498-1.058 1.67-2.04 2.854-2.12v-8.455h-9.65l-2.982 3.035c2.075 3.382-1.005 7.57-4.814 6.132-2.77-1.046-3.444-4.845-1.202-6.807 1.403-1.229 3.42-1.372 4.964-.3l2.015-2.006c-2.281-.2-2.741-2.05-2.51-4.064.128-1.125 1.266-.775 2.074-.821v-5.929H7.987c-.565 2.981-3.934 4.355-6.405 2.551C-.19 21.04-.528 18.324.842 16.6c2.218-2.786 6.434-1.65 7.145 1.758h4.144v-3.02c-.918-1.25-3.772-3.428-3.926-4.94-.062-.616.071-1.04.277-1.595l-4.25-4.725c-.489-.702.239-1.418.98-.988L9.52 7.765c.266.12.772-.18 1.136-.171 1.467.035 2.33 1.62 3.3 2.511.27.076.56-.091.843-.097 1.913-.038 4.781.269 6.541-.002.6-.092 1.357-.514 2.11-.622.407-.058.814-.022 1.222-.032l-1.251-.77C20.057 5.94 21.669.517 25.872.022a5.46 5.46 0 0 1 .982 0Zm-2.906 2.455c-3.24 3.343 2.274 8.156 5.086 4.298 2.402-3.295-2.236-7.237-5.086-4.298Zm-1.239 13.52v7.741h1.527c-.232-1.633.057-2.216 1.415-3.02.604-.358 4.17-1.906 4.312-2.138.243-.645-.31-2.611.459-2.835.512-.148.897.102.985.609.089.507.1 2.725-.143 3.098l-5.39 2.806c-.498 1.334.332 1.69 1.528 1.43l5.977-3.04c.001-3.524.76-7.764-3.18-9.445-1.493-.637-6.316-.631-7.844-.063-1.981.736-3.018 2.43-4.623 3.358-.642.371-1.315.355-1.897-.14L11.143 9.2c-.846-.487-1.71.226-1.495 1.175.048.214.514.756.684.958 1.043 1.24 2.364 2.668 3.49 3.843 1.588 1.659 2.472 2.664 4.96 1.808.92-.315 2.23-1.24 3.078-1.406.279-.054.784.178.85.42v-.002Zm-3.706-4.556h-3.709c.126.326.475.727.707.99.135.151.828.893.969.869.57-.57 1.258-1.006 1.849-1.55.106-.098.234-.095.184-.309ZM36.45 25.715v-13.56c0-.246-.716-.713-.927-.713H33.07l1.11 1.792c.76 1.667.852 5.853.636 7.709-.032.273-.088.404-.27.606l-6.99 3.612-5.314-.016c-.367-.066-.95-.817-.95-1.13v-6.643c-2.577 1.578-5.467 2.023-7.743-.33v8.675h7.688c.15 0 .734 1.037 1.411 1.105 1.542.154 3.34-.125 4.912-.01.386-.058.838-1.095 1.202-1.095h7.688v-.002ZM3.49 16.519c-3.056.493-2.545 5.35.6 5.214 3.569-.153 3.211-5.83-.6-5.214Zm41.982-.001c-3.41.589-2.25 6.092 1.255 5.105 2.991-.843 2.167-5.696-1.255-5.105Zm-24.78 10.624h-9.215c-.03.818-.11 1.857.925 1.979l25.545-.086c.717-.385.57-1.197.574-1.893h-9.215c-.15 0-.644.992-1.427 1.089-1.304.161-4.095.114-5.447.014-1.352-.1-1.271-.969-1.74-1.103ZM8.077 33.316c-3.47.246-3.05 5.742.611 5.235 3.15-.436 2.704-5.47-.61-5.235Zm33.365 0c-3.344.348-2.872 5.733.723 5.235 3.22-.445 2.665-5.587-.723-5.235Zm-14.628 7.7c-2.075-2.097-5.67.632-4.017 3.33 1.975 3.223 6.811-.508 4.017-3.33Z" fill="#fff"/></g><defs><clipPath id="Layer_1__a"><path fill="#fff" d="M0 0h50v47H0z"/></clipPath></defs></svg>